<svg width="160" height="28" viewBox="0 0 160 28" fill="none" xmlns="http://www.w3.org/2000/svg">
<rect x="4.05859" y="10.5034" width="1.04989" height="9.02042" transform="rotate(-60 4.05859 10.5034)" fill="#171846"/>
<rect x="11.6177" y="14.207" width="1.04989" height="9.729" fill="#171846"/>
<rect x="19.4248" y="9.7998" width="1.04989" height="9.02042" transform="rotate(60 19.4248 9.7998)" fill="#171846"/>
<path d="M12.174 27.9999L24.3467 20.9281V13.9723V7.01654L21.7383 5.50116V13.9806V19.4459L12.174 25.0023L5.21822 20.9613V17.9636V10.0142L12.174 5.97317L19.1298 10.0142V6.99997L12.174 2.95898L2.60979 8.51534V19.4459V22.4435L12.174 27.9999Z" fill="#171846"/>
<path d="M12.1727 0.000125885L0 7.07186L0 14.0277L0 20.9835L2.60843 22.4988L2.60843 14.0194L2.60843 8.55411L12.1727 2.99775L19.1285 7.03873V10.0364L19.1285 17.9858L12.1727 22.0268L5.21685 17.9858V21L12.1727 25.041L21.7369 19.4847L21.7369 8.55411V5.55649L12.1727 0.000125885Z" fill="#A998CF"/>
<path d="M33.8574 8.65479H38.4976C39.0786 8.65479 39.5739 8.72119 39.9834 8.854C40.3929 8.98128 40.7277 9.1805 40.9878 9.45166C41.2534 9.71729 41.4471 10.0549 41.5688 10.4644C41.6906 10.8683 41.7515 11.347 41.7515 11.9004C41.7515 12.3708 41.7017 12.7526 41.6021 13.0459C41.508 13.3392 41.389 13.5716 41.2451 13.7432C41.1012 13.9147 40.9408 14.0392 40.7637 14.1167C40.5866 14.1886 40.4206 14.2412 40.2656 14.2744V14.291C40.3652 14.3021 40.4842 14.327 40.6226 14.3657C40.7609 14.3989 40.9048 14.4543 41.0542 14.5317C41.2036 14.6037 41.3503 14.7033 41.4941 14.8306C41.638 14.9523 41.7681 15.11 41.8843 15.3037C42.0005 15.4974 42.0946 15.7326 42.1665 16.0093C42.2384 16.2804 42.2744 16.5986 42.2744 16.9639C42.2744 17.6943 42.2025 18.2892 42.0586 18.7485C41.9147 19.2078 41.6961 19.5675 41.4028 19.8276C41.1151 20.0877 40.7471 20.2648 40.2988 20.3589C39.8561 20.453 39.3359 20.5 38.7383 20.5H33.8574V8.65479ZM38.1074 13.6519C38.4062 13.6519 38.6608 13.6325 38.8711 13.5938C39.0814 13.555 39.2529 13.4775 39.3857 13.3613C39.5241 13.2396 39.6237 13.0708 39.6846 12.855C39.7454 12.6392 39.7759 12.3542 39.7759 12C39.7759 11.7067 39.7399 11.4632 39.668 11.2695C39.596 11.0703 39.4909 10.9126 39.3525 10.7964C39.2142 10.6802 39.0426 10.5972 38.8379 10.5474C38.6387 10.4976 38.4118 10.4727 38.1572 10.4727H35.8496V13.6519H38.1074ZM38.4976 18.6821C38.7521 18.6821 38.9818 18.6628 39.1865 18.624C39.3968 18.5798 39.5739 18.4967 39.7178 18.375C39.8672 18.2533 39.9806 18.0845 40.0581 17.8687C40.1411 17.6473 40.1826 17.3568 40.1826 16.9971C40.1826 16.6374 40.1466 16.3496 40.0747 16.1338C40.0083 15.9124 39.9004 15.7437 39.751 15.6274C39.6071 15.5112 39.4217 15.4365 39.1948 15.4033C38.9735 15.3646 38.7078 15.3452 38.3979 15.3452H35.8496V18.6821H38.4976ZM44.6152 11.7427H46.3169L46.4331 12.6973C46.8647 12.415 47.349 12.1826 47.8857 12C48.4225 11.8174 49.0257 11.7095 49.6953 11.6763L49.6787 13.7183C48.987 13.7293 48.3866 13.7653 47.8774 13.8262C47.3739 13.8815 46.9422 13.9811 46.5825 14.125V20.5H44.6152V11.7427ZM52.5259 10.2568C52.299 10.2568 52.1108 10.2402 51.9614 10.207C51.8175 10.1738 51.6986 10.1157 51.6045 10.0327C51.516 9.94971 51.4523 9.83626 51.4136 9.69238C51.3804 9.5485 51.3638 9.36312 51.3638 9.13623C51.3638 8.90934 51.3804 8.72396 51.4136 8.58008C51.4523 8.43066 51.516 8.31169 51.6045 8.22314C51.6986 8.1346 51.8175 8.07373 51.9614 8.04053C52.1108 8.00732 52.299 7.99072 52.5259 7.99072C52.7528 7.99072 52.9382 8.00732 53.082 8.04053C53.2314 8.07373 53.3504 8.1346 53.439 8.22314C53.5275 8.31169 53.5884 8.43066 53.6216 8.58008C53.6548 8.72396 53.6714 8.90934 53.6714 9.13623C53.6714 9.36312 53.6548 9.5485 53.6216 9.69238C53.5884 9.83626 53.5275 9.94971 53.439 10.0327C53.3504 10.1157 53.2314 10.1738 53.082 10.207C52.9382 10.2402 52.7528 10.2568 52.5259 10.2568ZM51.5381 11.7427H53.5137V20.5H51.5381V11.7427ZM57.0913 22.6914C57.2905 22.7357 57.5202 22.7716 57.7803 22.7993C58.0016 22.827 58.2673 22.8491 58.5771 22.8657C58.8926 22.8879 59.2412 22.8989 59.623 22.8989C60.0879 22.8989 60.4642 22.8796 60.752 22.8408C61.0452 22.8076 61.2721 22.744 61.4326 22.6499C61.5986 22.5614 61.7121 22.4368 61.7729 22.2764C61.8338 22.1214 61.8643 21.925 61.8643 21.687V20.1597C61.6152 20.2648 61.3524 20.3589 61.0757 20.4419C60.8322 20.5138 60.5555 20.5775 60.2456 20.6328C59.9412 20.6937 59.6203 20.7241 59.2827 20.7241C58.7017 20.7241 58.2008 20.6466 57.7803 20.4917C57.3652 20.3312 57.0221 20.0684 56.751 19.7031C56.4854 19.3379 56.2889 18.8592 56.1616 18.2671C56.0343 17.675 55.9707 16.9473 55.9707 16.084C55.9707 15.3757 56.0399 14.742 56.1782 14.1831C56.3166 13.6187 56.5186 13.1427 56.7842 12.7554C57.0553 12.3625 57.3874 12.0636 57.7803 11.8589C58.1787 11.6486 58.6353 11.5435 59.1499 11.5435C59.5871 11.5435 59.9855 11.5877 60.3452 11.6763C60.7104 11.7648 61.0259 11.8617 61.2915 11.9668C61.5959 12.0941 61.8726 12.2352 62.1216 12.3901L62.3457 11.7427H63.8398V21.8115C63.8398 22.3372 63.7624 22.7799 63.6074 23.1396C63.458 23.5049 63.2284 23.7982 62.9185 24.0195C62.6141 24.2464 62.2323 24.4069 61.7729 24.501C61.3136 24.6006 60.7796 24.6504 60.1709 24.6504C59.7835 24.6504 59.4072 24.6227 59.042 24.5674C58.6768 24.5176 58.3475 24.4595 58.0542 24.3931C57.7111 24.3211 57.3901 24.2354 57.0913 24.1357V22.6914ZM59.98 18.9561C60.2124 18.9561 60.4393 18.9478 60.6606 18.9312C60.8875 18.909 61.0895 18.8841 61.2666 18.8564C61.4769 18.8288 61.6761 18.7928 61.8643 18.7485V13.7349C61.6484 13.6574 61.416 13.5882 61.167 13.5273C60.9567 13.472 60.716 13.4222 60.4448 13.3779C60.1737 13.3337 59.8942 13.3115 59.6064 13.3115C59.3132 13.3115 59.0669 13.3586 58.8677 13.4526C58.6685 13.5467 58.508 13.7044 58.3862 13.9258C58.2645 14.1471 58.1759 14.4404 58.1206 14.8057C58.0708 15.1709 58.0459 15.6247 58.0459 16.167C58.0459 16.665 58.0625 17.0911 58.0957 17.4453C58.1289 17.7995 58.2091 18.09 58.3364 18.3169C58.4637 18.5382 58.6574 18.7015 58.9175 18.8066C59.1776 18.9062 59.5317 18.9561 59.98 18.9561ZM66.5957 7.60059H68.563V12.166C68.8563 12.0553 69.1717 11.953 69.5093 11.8589C69.797 11.7814 70.1263 11.7095 70.4971 11.6431C70.8734 11.5767 71.2607 11.5435 71.6592 11.5435C72.0576 11.5435 72.4173 11.5877 72.7383 11.6763C73.0648 11.7593 73.3387 11.9115 73.5601 12.1328C73.7869 12.3486 73.9613 12.6447 74.083 13.021C74.2048 13.3918 74.2656 13.8677 74.2656 14.4487V20.5H72.29V14.6895C72.29 14.457 72.2734 14.255 72.2402 14.0835C72.207 13.9064 72.1351 13.7625 72.0244 13.6519C71.9193 13.5356 71.7643 13.4499 71.5596 13.3945C71.3604 13.3392 71.0947 13.3115 70.7627 13.3115C70.4971 13.3115 70.2342 13.3281 69.9741 13.3613C69.7196 13.3945 69.4871 13.4305 69.2769 13.4692C69.0278 13.5135 68.7899 13.5633 68.563 13.6187V20.5H66.5957V7.60059ZM77.6191 13.3779H76.3242V11.7427H77.6191V9.8916L79.5864 9.45166V11.7427H81.7944V13.3779H79.5864V18.0845C79.5864 18.2892 79.6003 18.458 79.6279 18.5908C79.6611 18.7236 79.7165 18.8315 79.7939 18.9146C79.877 18.992 79.9904 19.0474 80.1343 19.0806C80.2837 19.1082 80.4746 19.1221 80.707 19.1221C80.9229 19.1221 81.1165 19.1193 81.2881 19.1138C81.4652 19.1027 81.6146 19.0916 81.7363 19.0806C81.8802 19.0695 82.0075 19.0557 82.1182 19.0391V20.3506C81.9245 20.4281 81.717 20.4972 81.4956 20.5581C81.3019 20.6079 81.075 20.6522 80.8149 20.6909C80.5549 20.7352 80.2699 20.7573 79.96 20.7573C79.5283 20.7573 79.1631 20.7158 78.8643 20.6328C78.571 20.5498 78.3302 20.4253 78.1421 20.2593C77.9595 20.0877 77.8267 19.8747 77.7437 19.6201C77.6606 19.36 77.6191 19.0584 77.6191 18.7153V13.3779ZM84.3096 8.65479H86.3018V20.5H84.3096V8.65479ZM89.1904 11.7427H90.6348L90.8755 12.3901C91.1799 12.2241 91.5119 12.0747 91.8716 11.9419C92.1815 11.8312 92.5384 11.7288 92.9424 11.6348C93.3464 11.5407 93.778 11.4937 94.2373 11.4937C95.1006 11.4937 95.737 11.7205 96.1465 12.1743C96.5615 12.6226 96.769 13.3281 96.769 14.291V20.5H94.8018V14.5317C94.8018 14.3049 94.7852 14.1112 94.752 13.9507C94.7243 13.7847 94.6606 13.6519 94.561 13.5522C94.4614 13.4471 94.3175 13.3696 94.1294 13.3198C93.9412 13.27 93.6895 13.2451 93.374 13.2451C93.042 13.2451 92.7404 13.2673 92.4692 13.3115C92.1981 13.3503 91.9657 13.3918 91.772 13.436C91.5451 13.4914 91.3403 13.5522 91.1577 13.6187V20.5H89.1904V11.7427ZM98.1885 11.7427H100.33L102.488 18.6655H102.521L104.68 11.7427H106.821L103.8 20.5H101.218L98.1885 11.7427ZM107.651 16.0259C107.651 15.1128 107.77 14.363 108.008 13.7764C108.246 13.1898 108.562 12.7277 108.955 12.3901C109.347 12.0526 109.796 11.8201 110.299 11.6929C110.803 11.5601 111.32 11.4937 111.852 11.4937C112.521 11.4937 113.075 11.585 113.512 11.7676C113.954 11.9502 114.306 12.2075 114.566 12.5396C114.826 12.866 115.009 13.259 115.114 13.7183C115.219 14.1776 115.271 14.6839 115.271 15.2373C115.271 15.4974 115.26 15.7658 115.238 16.0425C115.222 16.3192 115.197 16.6042 115.164 16.8975H109.677C109.682 17.2904 109.724 17.6224 109.801 17.8936C109.884 18.1592 110.017 18.3778 110.2 18.5493C110.388 18.7153 110.634 18.8371 110.938 18.9146C111.248 18.9865 111.633 19.0225 112.092 19.0225C112.48 19.0225 112.842 19.0142 113.18 18.9976C113.517 18.9754 113.813 18.9505 114.068 18.9229C114.367 18.8952 114.638 18.8592 114.881 18.8149V20.1929C114.599 20.298 114.292 20.3921 113.96 20.4751C113.678 20.547 113.348 20.6107 112.972 20.666C112.596 20.7269 112.195 20.7573 111.769 20.7573C111.116 20.7573 110.535 20.6743 110.025 20.5083C109.516 20.3478 109.085 20.0822 108.73 19.7114C108.382 19.3351 108.113 18.8454 107.925 18.2422C107.743 17.639 107.651 16.9002 107.651 16.0259ZM113.454 15.4199V15.1045C113.454 14.7725 113.431 14.4847 113.387 14.2412C113.348 13.9922 113.265 13.7874 113.138 13.627C113.011 13.4665 112.831 13.3475 112.599 13.27C112.366 13.1925 112.056 13.1538 111.669 13.1538C111.254 13.1538 110.914 13.2036 110.648 13.3032C110.388 13.3973 110.183 13.5412 110.034 13.7349C109.89 13.923 109.79 14.1582 109.735 14.4404C109.685 14.7227 109.66 15.0492 109.66 15.4199H113.454ZM117.264 11.7427H118.708L118.949 12.3901C119.253 12.2241 119.585 12.0747 119.945 11.9419C120.255 11.8312 120.612 11.7288 121.016 11.6348C121.42 11.5407 121.851 11.4937 122.311 11.4937C123.174 11.4937 123.81 11.7205 124.22 12.1743C124.635 12.6226 124.842 13.3281 124.842 14.291V20.5H122.875V14.5317C122.875 14.3049 122.858 14.1112 122.825 13.9507C122.798 13.7847 122.734 13.6519 122.634 13.5522C122.535 13.4471 122.391 13.3696 122.203 13.3198C122.014 13.27 121.763 13.2451 121.447 13.2451C121.115 13.2451 120.814 13.2673 120.542 13.3115C120.271 13.3503 120.039 13.3918 119.845 13.436C119.618 13.4914 119.414 13.5522 119.231 13.6187V20.5H117.264V11.7427ZM128.204 13.3779H126.909V11.7427H128.204V9.8916L130.171 9.45166V11.7427H132.379V13.3779H130.171V18.0845C130.171 18.2892 130.185 18.458 130.213 18.5908C130.246 18.7236 130.301 18.8315 130.379 18.9146C130.462 18.992 130.575 19.0474 130.719 19.0806C130.869 19.1082 131.06 19.1221 131.292 19.1221C131.508 19.1221 131.701 19.1193 131.873 19.1138C132.05 19.1027 132.2 19.0916 132.321 19.0806C132.465 19.0695 132.592 19.0557 132.703 19.0391V20.3506C132.509 20.4281 132.302 20.4972 132.081 20.5581C131.887 20.6079 131.66 20.6522 131.4 20.6909C131.14 20.7352 130.855 20.7573 130.545 20.7573C130.113 20.7573 129.748 20.7158 129.449 20.6328C129.156 20.5498 128.915 20.4253 128.727 20.2593C128.544 20.0877 128.412 19.8747 128.329 19.6201C128.246 19.36 128.204 19.0584 128.204 18.7153V13.3779ZM134.164 16.1172C134.164 15.3757 134.244 14.7199 134.405 14.1499C134.565 13.5744 134.814 13.0902 135.152 12.6973C135.495 12.3044 135.927 12.0055 136.447 11.8008C136.967 11.596 137.59 11.4937 138.314 11.4937C139.039 11.4937 139.662 11.596 140.182 11.8008C140.708 12.0055 141.139 12.3044 141.477 12.6973C141.815 13.0902 142.064 13.5744 142.224 14.1499C142.385 14.7199 142.465 15.3757 142.465 16.1172C142.465 16.8587 142.385 17.52 142.224 18.1011C142.064 18.6766 141.815 19.1608 141.477 19.5537C141.139 19.9466 140.708 20.2454 140.182 20.4502C139.662 20.6549 139.039 20.7573 138.314 20.7573C137.59 20.7573 136.967 20.6549 136.447 20.4502C135.927 20.2454 135.495 19.9466 135.152 19.5537C134.814 19.1608 134.565 18.6766 134.405 18.1011C134.244 17.52 134.164 16.8587 134.164 16.1172ZM138.314 19.0889C138.752 19.0889 139.106 19.0252 139.377 18.8979C139.648 18.7651 139.858 18.5742 140.008 18.3252C140.157 18.0706 140.257 17.7607 140.307 17.3955C140.362 17.0247 140.39 16.5986 140.39 16.1172C140.39 15.6413 140.362 15.2207 140.307 14.8555C140.257 14.4847 140.157 14.1748 140.008 13.9258C139.858 13.6712 139.648 13.4803 139.377 13.353C139.106 13.2202 138.752 13.1538 138.314 13.1538C137.883 13.1538 137.531 13.2202 137.26 13.353C136.989 13.4803 136.776 13.6712 136.621 13.9258C136.472 14.1748 136.369 14.4847 136.314 14.8555C136.264 15.2207 136.239 15.6413 136.239 16.1172C136.239 16.5986 136.264 17.0247 136.314 17.3955C136.369 17.7607 136.472 18.0706 136.621 18.3252C136.776 18.5742 136.989 18.7651 137.26 18.8979C137.531 19.0252 137.883 19.0889 138.314 19.0889ZM144.623 11.7427H146.325L146.441 12.6973C146.873 12.415 147.357 12.1826 147.894 12C148.43 11.8174 149.034 11.7095 149.703 11.6763L149.687 13.7183C148.995 13.7293 148.394 13.7653 147.885 13.8262C147.382 13.8815 146.95 13.9811 146.59 14.125V20.5H144.623V11.7427ZM151.073 22.9985C151.15 23.0096 151.239 23.0179 151.338 23.0234C151.51 23.04 151.767 23.0483 152.11 23.0483C152.299 23.0483 152.462 23.029 152.6 22.9902C152.744 22.9515 152.866 22.8879 152.965 22.7993C153.07 22.7108 153.162 22.6001 153.239 22.4673C153.322 22.3345 153.4 22.1712 153.472 21.9775L154.011 20.5H153.165L150.118 11.7427H152.31L154.559 18.7651H154.625L156.883 11.7427H159.058L155.306 22.3179C155.151 22.7495 154.991 23.112 154.825 23.4053C154.664 23.7041 154.487 23.9448 154.293 24.1274C154.105 24.3101 153.898 24.4429 153.671 24.5259C153.45 24.6089 153.206 24.6504 152.94 24.6504C152.636 24.6504 152.368 24.6366 152.135 24.6089C151.908 24.5812 151.715 24.548 151.554 24.5093C151.372 24.465 151.211 24.4152 151.073 24.3599V22.9985Z" fill="#171846"/>
</svg>
