<svg width="64" height="64" viewBox="0 0 64 64" fill="none" xmlns="http://www.w3.org/2000/svg">
<path d="M57.7334 51.0316C61.8014 45.5555 64 38.9468 64 32C64 23.4525 60.6715 15.4166 54.6275 9.3725C48.5834 3.32863 40.5475 0 32 0V3.75C39.5459 3.75 46.6401 6.6885 51.9757 12.0243C57.3115 17.36 60.25 24.4541 60.25 32C60.25 38.0954 58.3316 43.8954 54.7822 48.7125L54.3524 43.7989L50.6166 44.1256L51.5971 55.3327L62.8044 54.3522L62.4776 50.6165L57.7334 51.0316Z" fill="#4C2E81"/>
<path d="M3.75 32.0002C3.75 25.9049 5.66837 20.1049 9.21775 15.2877L9.64762 20.2014L13.3834 19.8746L12.4029 8.66748L1.19562 9.64786L1.52237 13.3836L6.2665 12.9686C2.19863 18.4447 0 25.0535 0 32.0002C0 40.5477 3.3285 48.5836 9.3725 54.6277C15.4166 60.6716 23.4525 64.0002 32 64.0002V60.2502C24.4541 60.2502 17.3599 57.3117 12.0243 51.976C6.6885 46.6402 3.75 39.5461 3.75 32.0002Z" fill="#4C2E81"/>
<path d="M32 24.375C27.7955 24.375 24.375 27.7955 24.375 32C24.375 36.2045 27.7955 39.625 32 39.625C36.2045 39.625 39.625 36.2045 39.625 32C39.625 27.7955 36.2045 24.375 32 24.375ZM32 35.875C29.8634 35.875 28.125 34.1366 28.125 32C28.125 29.8634 29.8634 28.125 32 28.125C34.1366 28.125 35.875 29.8634 35.875 32C35.875 34.1366 34.1366 35.875 32 35.875Z" fill="#4C2E81"/>
<path d="M49.3716 24.3841L45.6924 25.5796C44.8707 23.8345 43.7254 22.2709 42.3337 20.9666L44.6112 17.8319L41.5774 15.6276L39.3026 18.7586C37.6559 17.8468 35.8224 17.233 33.8749 16.9911V13.125H30.1249V16.9911C28.1774 17.233 26.3439 17.8469 24.6971 18.7586L22.4224 15.6276L19.3885 17.8319L21.666 20.9666C20.2744 22.2709 19.1289 23.8344 18.3074 25.5796L14.6281 24.3841L13.4692 27.9505L17.1462 29.1453C16.9689 30.0701 16.8749 31.0243 16.8749 32C16.8749 32.9757 16.9689 33.9299 17.1462 34.8548L13.4692 36.0495L14.6281 39.6159L18.3074 38.4204C19.129 40.1655 20.2744 41.7291 21.666 43.0334L19.3885 46.1681L22.4224 48.3724L24.6971 45.2414C26.3439 46.1533 28.1774 46.767 30.1249 47.0089V50.875H33.8749V47.0089C35.8224 46.767 37.6559 46.1531 39.3026 45.2414L41.5774 48.3724L44.6112 46.1681L42.3337 43.0334C43.7254 41.7291 44.8709 40.1656 45.6924 38.4204L49.3716 39.6159L50.5305 36.0495L46.8535 34.8548C47.0309 33.9299 47.1249 32.9757 47.1249 32C47.1249 31.0243 47.0309 30.0701 46.8535 29.1453L50.5305 27.9505L49.3716 24.3841ZM31.9999 43.375C25.7276 43.375 20.6249 38.2723 20.6249 32C20.6249 25.7277 25.7276 20.625 31.9999 20.625C38.2721 20.625 43.3749 25.7277 43.3749 32C43.3749 38.2723 38.2721 43.375 31.9999 43.375Z" fill="#4C2E81"/>
</svg>
