<svg width="64" height="64" viewBox="0 0 64 64" fill="none" xmlns="http://www.w3.org/2000/svg">
<g clip-path="url(#clip0_2_2862)">
<path d="M32.1018 11.9271C21.0291 11.9271 12.0258 20.9304 12.0258 32.0032C12.0258 43.0764 21.0291 52.0797 32.1018 52.0797C43.1751 52.0797 52.1783 43.0764 52.1783 32.0032C52.1783 20.9304 43.1751 11.9271 32.1018 11.9271ZM32.1018 49.1122C22.662 49.1122 14.9933 41.4301 14.9933 32.0032C14.9933 22.5762 22.6619 14.8946 32.1018 14.8946C41.5511 14.8946 49.2108 22.5544 49.2108 32.0032C49.2108 41.452 41.5511 49.1122 32.1018 49.1122Z" fill="#4C2E81" stroke="#4C2E81" stroke-width="0.3"/>
<path d="M57.7778 24.5719L57.748 25.115L58.0313 25.5792L61.9484 31.9977L58.0068 38.4239L57.7198 38.8919L57.7515 39.44L58.1874 46.9702L51.3554 50.5236L50.8685 50.7769L50.6134 51.2629L47.0527 58.0474L39.5145 57.6641L38.9638 57.6361L38.4964 57.9289L32.1014 61.9359L25.6812 57.9274L25.2014 57.6278L24.6371 57.6657L17.0418 58.1761L13.5807 51.2902L13.311 50.7538L12.7689 50.4959L6.27199 47.4051L6.43111 39.3735L6.4416 38.8441L6.15683 38.3977L2.0763 32.0009L6.16905 25.597L6.45601 25.148L6.44404 24.6153L6.27357 17.0291L12.8642 13.4557L13.3479 13.1935L13.5945 12.7017L17.0435 5.82307L24.6516 6.3278L25.2214 6.36561L25.7039 6.05998L32.013 2.06333L38.5209 6.07169L38.9811 6.35516L39.5211 6.3297L47.4184 5.95736L50.6085 12.6805L50.8602 13.2109L51.3808 13.4823L58.1909 17.0307L57.7778 24.5719Z" stroke="#4C2E81" stroke-width="3.5"/>
<path d="M25.6514 28.75L23 31.4014L29.9507 38.3525L40.6514 27.6514L38 25L29.9507 33.0488L25.6514 28.75Z" fill="#4C2E81"/>
</g>
<defs>
<clipPath id="clip0_2_2862">
<rect width="64" height="64" fill="white"/>
</clipPath>
</defs>
</svg>
