<svg width="64" height="64" viewBox="0 0 64 64" fill="none" xmlns="http://www.w3.org/2000/svg">
<path d="M25.8271 28.7993L23.1758 31.4507L30.1265 38.4019L40.8271 27.7007L38.1758 25.0493L30.1265 33.0981L25.8271 28.7993Z" fill="#4C2E81"/>
<path d="M63.9756 32C61.3569 28.9624 58.4487 26.082 54.0459 22.9692C46.7876 17.8374 39.1646 15.125 32 15.125C24.8354 15.125 17.2124 17.8374 9.95459 22.9692C5.62695 26.0283 2.70557 28.8901 0.0244141 32C2.64307 35.0376 5.55127 37.918 9.9541 41.0308C17.2124 46.1626 24.8354 48.875 32 48.875C39.1646 48.875 46.7876 46.1626 54.0454 41.0308C58.373 37.9717 61.2944 35.1099 63.9756 32ZM45.125 32C45.125 39.2358 39.2383 45.125 32 45.125C24.769 45.125 18.875 39.2427 18.875 32C18.875 24.7642 24.7617 18.875 32 18.875C39.231 18.875 45.125 24.7573 45.125 32ZM5.07324 32C6.42773 30.6265 8.91357 28.2886 12.1968 25.9761C13.8574 24.8066 15.8545 23.5566 18.105 22.436C16.2266 25.1562 15.125 28.4517 15.125 32C15.125 35.5483 16.2266 38.8438 18.105 41.564C15.855 40.4434 13.8574 39.1934 12.1968 38.0239C8.91309 35.7114 6.42773 33.373 5.07324 32ZM45.895 41.564C47.7734 38.8438 48.875 35.5483 48.875 32C48.875 28.4517 47.7734 25.1562 45.895 22.436C48.145 23.5566 50.1426 24.8066 51.8032 25.9761C55.0869 28.2886 57.5718 30.6265 58.9268 32C57.5718 33.3735 55.0864 35.7114 51.8032 38.0239C50.1426 39.1934 48.1455 40.4434 45.895 41.564Z" fill="#4C2E81"/>
<path d="M3.75 7.625H15V3.875H0V18.875H3.75V7.625Z" fill="#4C2E81"/>
<path d="M49 3.875V7.625H60.25V18.875H64V3.875H49Z" fill="#4C2E81"/>
<path d="M3.75 45.125H0V60.125H15V56.375H3.75V45.125Z" fill="#4C2E81"/>
<path d="M60.25 56.375H49V60.125H64V45.125H60.25V56.375Z" fill="#4C2E81"/>
</svg>
